<?xml version="1.0" encoding="UTF-8"?>
<svg width="50px" height="50px" viewBox="0 0 50 50" version="1.1" xmlns="http://www.w3.org/2000/svg" xmlns:xlink="http://www.w3.org/1999/xlink">
    <!-- Generator: Sketch 48.2 (47327) - http://www.bohemiancoding.com/sketch -->
    <title>icon-day</title>
    <desc>Created with Sketch.</desc>
    <defs></defs>
    <g id="Page-1" stroke="none" stroke-width="1" fill="none" fill-rule="evenodd">
        <g id="icon-day">
            <g id="icon_light" transform="translate(3.000000, 3.000000)">
                <g id="Group-2-Copy" transform="translate(9.000000, 9.000000)" stroke="#FFFFFF" stroke-width="3">
                    <circle id="Oval" cx="13" cy="13" r="13"></circle>
                </g>
                <path d="M22,4 C20.8954305,4 20,3.1045695 20,2 C20,0.8954305 20.8954305,0 22,0 C23.1045695,0 24,0.8954305 24,2 C24,3.1045695 23.1045695,4 22,4 Z M34.7279221,9.27207794 C33.9468735,8.49102936 33.9468735,7.2246994 34.7279221,6.44365081 C35.5089706,5.66260223 36.7753006,5.66260223 37.5563492,6.44365081 C38.3373978,7.2246994 38.3373978,8.49102936 37.5563492,9.27207794 C36.7753006,10.0531265 35.5089706,10.0531265 34.7279221,9.27207794 Z M40,22 C40,20.8954305 40.8954305,20 42,20 C43.1045695,20 44,20.8954305 44,22 C44,23.1045695 43.1045695,24 42,24 C40.8954305,24 40,23.1045695 40,22 Z M34.7279221,34.7279221 C35.5089706,33.9468735 36.7753006,33.9468735 37.5563492,34.7279221 C38.3373978,35.5089706 38.3373978,36.7753006 37.5563492,37.5563492 C36.7753006,38.3373978 35.5089706,38.3373978 34.7279221,37.5563492 C33.9468735,36.7753006 33.9468735,35.5089706 34.7279221,34.7279221 Z M22,40 C23.1045695,40 24,40.8954305 24,42 C24,43.1045695 23.1045695,44 22,44 C20.8954305,44 20,43.1045695 20,42 C20,40.8954305 20.8954305,40 22,40 Z M9.27207794,34.7279221 C10.0531265,35.5089706 10.0531265,36.7753006 9.27207794,37.5563492 C8.49102936,38.3373978 7.2246994,38.3373978 6.44365081,37.5563492 C5.66260223,36.7753006 5.66260223,35.5089706 6.44365081,34.7279221 C7.2246994,33.9468735 8.49102936,33.9468735 9.27207794,34.7279221 Z M4,22 C4,23.1045695 3.1045695,24 2,24 C0.8954305,24 2.79601295e-16,23.1045695 7.66951701e-17,22 C-1.26210955e-16,20.8954305 0.8954305,20 2,20 C3.1045695,20 4,20.8954305 4,22 Z M9.27207794,9.27207794 C8.49102936,10.0531265 7.2246994,10.0531265 6.44365081,9.27207794 C5.66260223,8.49102936 5.66260223,7.2246994 6.44365081,6.44365081 C7.2246994,5.66260223 8.49102936,5.66260223 9.27207794,6.44365081 C10.0531265,7.2246994 10.0531265,8.49102936 9.27207794,9.27207794 Z" id="Oval-2" fill="#FFFFFF"></path>
            </g>
        </g>
    </g>
</svg>