<?xml version="1.0" encoding="utf-8"?>
<!-- Generator: Adobe Illustrator 22.0.1, SVG Export Plug-In . SVG Version: 6.00 Build 0)  -->
<svg version="1.1" id="Layer_1" xmlns="http://www.w3.org/2000/svg" xmlns:xlink="http://www.w3.org/1999/xlink" x="0px" y="0px"
	 viewBox="0 0 50 50" style="enable-background:new 0 0 50 50;" xml:space="preserve">
<style type="text/css">
	.st0{fill:#EBEBEC;}
	.st1{fill:#9D9FA2;}
</style>
<g>
	<path class="st0" d="M46.2,50H3.6c-2,0-3.7-1.6-3.7-3.7V3.7C-0.1,1.6,1.5,0,3.6,0h42.7c2,0,3.7,1.6,3.7,3.7v42.7
		C49.9,48.4,48.3,50,46.2,50z"/>
</g>
<g>
	<polygon class="st1" points="28.5,7.6 28.5,10.6 37.4,10.6 25.5,22.6 27.6,24.7 39.6,12.7 39.6,21.7 42.6,21.7 42.6,7.6 	"/>
	<polygon class="st1" points="35.8,36.7 13.5,36.7 13.5,14.4 24.7,14.4 24.7,11.4 10.5,11.4 10.5,39.7 38.8,39.7 38.8,25.5 
		35.8,25.5 	"/>
</g>
</svg>
